<svg viewBox="0 0 900 600" width="900" height="600" font-family="system-ui,-apple-system,sans-serif" xmlns="http://www.w3.org/2000/svg">
<defs>
<marker id="arr" markerWidth="8" markerHeight="8" refX="6" refY="3" orient="auto">
<path d="M0,0 L0,6 L8,3 z" fill="#1B3A6B"/>
</marker>
<marker id="arr2" markerWidth="8" markerHeight="8" refX="6" refY="3" orient="auto">
<path d="M0,0 L0,6 L8,3 z" fill="#0F6E56"/>
</marker>
</defs>

<!-- Title -->
<rect width="900" height="36" fill="#1B3A6B"/>
<text x="450" y="23" text-anchor="middle" fill="white" font-size="13" font-weight="bold">McCain Enterprise AKS Platform — Private Multi-Tenant Kubernetes</text>

<!-- Background zones -->
<rect x="8" y="44" width="884" height="548" rx="6" fill="#EAF1FB" stroke="#1B3A6B" stroke-width="1" stroke-dasharray="4,3"/>
<text x="16" y="58" font-size="10" fill="#1B3A6B" font-weight="bold">AKS Spoke Subscription</text>

<!-- Cloudflare WAF -->
<rect x="20" y="65" width="110" height="34" rx="8" fill="white" stroke="#BA7517" stroke-width="1.5"/>
<text x="75" y="83" text-anchor="middle" font-size="10" fill="#1e293b">Cloudflare WAF</text>
<text x="75" y="94" text-anchor="middle" font-size="9" fill="#64748b">Edge WAF/DNS</text>

<!-- App Gateway -->
<rect x="170" y="65" width="130" height="34" rx="8" fill="white" stroke="#1B3A6B" stroke-width="1.5"/>
<text x="235" y="83" text-anchor="middle" font-size="10" fill="#1e293b">App Gateway v2</text>
<text x="235" y="94" text-anchor="middle" font-size="9" fill="#64748b">L7 Ingress / WAF</text>

<!-- Azure Firewall -->
<rect x="340" y="65" width="120" height="34" rx="8" fill="white" stroke="#1B3A6B" stroke-width="1.5"/>
<text x="400" y="83" text-anchor="middle" font-size="10" fill="#1e293b">Azure Firewall/NAT</text>
<text x="400" y="94" text-anchor="middle" font-size="9" fill="#64748b">Egress Control</text>

<!-- Entra ID + RBAC -->
<rect x="500" y="65" width="130" height="34" rx="8" fill="white" stroke="#1B3A6B" stroke-width="1.5"/>
<text x="565" y="83" text-anchor="middle" font-size="10" fill="#1e293b">Entra ID + RBAC</text>
<text x="565" y="94" text-anchor="middle" font-size="9" fill="#64748b">Authn/Authz</text>

<!-- Azure DevOps + Terraform -->
<rect x="670" y="65" width="140" height="34" rx="8" fill="white" stroke="#BA7517" stroke-width="1.5"/>
<text x="740" y="83" text-anchor="middle" font-size="10" fill="#1e293b">Azure DevOps + TF</text>
<text x="740" y="94" text-anchor="middle" font-size="9" fill="#64748b">IaC / Pipelines</text>

<!-- Private AKS Cluster box -->
<rect x="140" y="118" width="620" height="330" rx="8" fill="#E8F5F0" stroke="#0F6E56" stroke-width="2"/>
<text x="450" y="134" text-anchor="middle" font-size="11" fill="#0F6E56" font-weight="bold">Private AKS Cluster (Private API / Private Link)</text>

<!-- System Node Pool -->
<rect x="155" y="142" width="120" height="34" rx="8" fill="white" stroke="#0F6E56" stroke-width="1.5"/>
<text x="215" y="160" text-anchor="middle" font-size="10" fill="#1e293b">System Node Pool</text>
<text x="215" y="171" text-anchor="middle" font-size="9" fill="#64748b">CriticalAddonsOnly</text>

<!-- User Node Pools -->
<rect x="295" y="142" width="130" height="34" rx="8" fill="white" stroke="#0F6E56" stroke-width="1.5"/>
<text x="360" y="160" text-anchor="middle" font-size="10" fill="#1e293b">User Node Pools</text>
<text x="360" y="171" text-anchor="middle" font-size="9" fill="#64748b">Per BU / Autoscaler</text>

<!-- Azure CNI Overlay -->
<rect x="445" y="142" width="130" height="34" rx="8" fill="white" stroke="#0F6E56" stroke-width="1.5"/>
<text x="510" y="160" text-anchor="middle" font-size="10" fill="#1e293b">Azure CNI Overlay</text>
<text x="510" y="171" text-anchor="middle" font-size="9" fill="#64748b">Pod CIDR 10.244/16</text>

<!-- Azure Policy -->
<rect x="595" y="142" width="120" height="34" rx="8" fill="white" stroke="#1B3A6B" stroke-width="1.5"/>
<text x="655" y="160" text-anchor="middle" font-size="10" fill="#1e293b">Azure Policy Add-on</text>
<text x="655" y="171" text-anchor="middle" font-size="9" fill="#64748b">PSS / Gatekeeper</text>

<!-- NGINX Ingress -->
<rect x="155" y="196" width="120" height="34" rx="8" fill="white" stroke="#0F6E56" stroke-width="1.5"/>
<text x="215" y="214" text-anchor="middle" font-size="10" fill="#1e293b">NGINX Ingress</text>
<text x="215" y="225" text-anchor="middle" font-size="9" fill="#64748b">App Routing Add-on</text>

<!-- Cilium Network Policies -->
<rect x="295" y="196" width="130" height="34" rx="8" fill="white" stroke="#0F6E56" stroke-width="1.5"/>
<text x="360" y="214" text-anchor="middle" font-size="10" fill="#1e293b">Cilium Net Policies</text>
<text x="360" y="225" text-anchor="middle" font-size="9" fill="#64748b">CCNP / CNP Isolation</text>

<!-- Workload Identity -->
<rect x="445" y="196" width="130" height="34" rx="8" fill="white" stroke="#0F6E56" stroke-width="1.5"/>
<text x="510" y="214" text-anchor="middle" font-size="10" fill="#1e293b">Workload Identity</text>
<text x="510" y="225" text-anchor="middle" font-size="9" fill="#64748b">OIDC Federated</text>

<!-- Ratify + Notation -->
<rect x="595" y="196" width="120" height="34" rx="8" fill="white" stroke="#BA7517" stroke-width="1.5"/>
<text x="655" y="214" text-anchor="middle" font-size="10" fill="#1e293b">Notation v2 + Ratify</text>
<text x="655" y="225" text-anchor="middle" font-size="9" fill="#64748b">Image Signing/Admit</text>

<!-- ArgoCD -->
<rect x="155" y="250" width="120" height="34" rx="8" fill="white" stroke="#0F6E56" stroke-width="1.5"/>
<text x="215" y="268" text-anchor="middle" font-size="10" fill="#1e293b">ArgoCD (GitOps)</text>
<text x="215" y="279" text-anchor="middle" font-size="9" fill="#64748b">ApplicationSet</text>

<!-- Defender for Containers -->
<rect x="295" y="250" width="130" height="34" rx="8" fill="white" stroke="#1B3A6B" stroke-width="1.5"/>
<text x="360" y="268" text-anchor="middle" font-size="10" fill="#1e293b">Defender for Containers</text>
<text x="360" y="279" text-anchor="middle" font-size="9" fill="#64748b">Runtime / MDVM</text>

<!-- Observability Stack -->
<rect x="445" y="250" width="130" height="34" rx="8" fill="white" stroke="#0F6E56" stroke-width="1.5"/>
<text x="510" y="268" text-anchor="middle" font-size="10" fill="#1e293b">Observability Stack</text>
<text x="510" y="279" text-anchor="middle" font-size="9" fill="#64748b">Grafana / Log Analytics</text>

<!-- BU App Pods -->
<rect x="235" y="310" width="280" height="50" rx="8" fill="#1B3A6B" fill-opacity="0.08" stroke="#1B3A6B" stroke-width="1.5" stroke-dasharray="4,2"/>
<text x="375" y="330" text-anchor="middle" font-size="10" fill="#1B3A6B" font-weight="bold">BU Application Pods (Namespaced)</text>
<text x="375" y="345" text-anchor="middle" font-size="9" fill="#64748b">Namespace isolation · Taints/Tolerations · Labels</text>

<!-- ACR -->
<rect x="20" y="390" width="120" height="34" rx="8" fill="white" stroke="#1B3A6B" stroke-width="1.5"/>
<text x="80" y="408" text-anchor="middle" font-size="10" fill="#1e293b">ACR Premium</text>
<text x="80" y="419" text-anchor="middle" font-size="9" fill="#64748b">Private Endpoint</text>

<!-- Key Vault -->
<rect x="160" y="390" width="130" height="34" rx="8" fill="white" stroke="#1B3A6B" stroke-width="1.5"/>
<text x="225" y="408" text-anchor="middle" font-size="10" fill="#1e293b">Key Vault + CSI</text>
<text x="225" y="419" text-anchor="middle" font-size="9" fill="#64748b">Secrets / Certs</text>

<!-- Cost Chargeback -->
<rect x="310" y="390" width="140" height="34" rx="8" fill="white" stroke="#BA7517" stroke-width="1.5"/>
<text x="380" y="408" text-anchor="middle" font-size="10" fill="#1e293b">Cost Chargeback</text>
<text x="380" y="419" text-anchor="middle" font-size="9" fill="#64748b">Cost Mgmt Tags / BU</text>

<!-- Hub Network ref -->
<rect x="470" y="390" width="140" height="34" rx="8" fill="white" stroke="#64748b" stroke-width="1" stroke-dasharray="4,2"/>
<text x="540" y="408" text-anchor="middle" font-size="10" fill="#64748b">Hub Network</text>
<text x="540" y="419" text-anchor="middle" font-size="9" fill="#64748b">ExpressRoute/VPN</text>

<!-- Internet ref -->
<rect x="630" y="390" width="100" height="34" rx="8" fill="white" stroke="#64748b" stroke-width="1" stroke-dasharray="4,2"/>
<text x="680" y="408" text-anchor="middle" font-size="10" fill="#64748b">Internet</text>
<text x="680" y="419" text-anchor="middle" font-size="9" fill="#64748b">External Clients</text>

<!-- Arrows: Cloudflare to AppGW -->
<line x1="130" y1="82" x2="168" y2="82" stroke="#BA7517" stroke-width="1.5" marker-end="url(#arr2)"/>
<!-- AppGW to NGINX -->
<line x1="235" y1="99" x2="215" y2="194" stroke="#1B3A6B" stroke-width="1.5" marker-end="url(#arr)"/>
<!-- NGINX to BU Pods -->
<line x1="215" y1="230" x2="300" y2="310" stroke="#0F6E56" stroke-width="1.5" marker-end="url(#arr2)"/>
<!-- CNI to BU Pods -->
<line x1="445" y1="168" x2="400" y2="310" stroke="#0F6E56" stroke-width="1" stroke-dasharray="3,2" marker-end="url(#arr2)"/>
<!-- BU Pods to Firewall egress -->
<line x1="375" y1="360" x2="400" y2="99" stroke="#BA7517" stroke-width="1" stroke-dasharray="3,2" marker-end="url(#arr)"/>
<!-- ArgoCD to Cilium -->
<line x1="275" y1="265" x2="293" y2="215" stroke="#0F6E56" stroke-width="1.5" marker-end="url(#arr2)"/>
<!-- Workload Identity to Key Vault -->
<line x1="510" y1="230" x2="280" y2="390" stroke="#1B3A6B" stroke-width="1" stroke-dasharray="3,2" marker-end="url(#arr)"/>
<!-- Ratify to ACR -->
<line x1="595" y1="220" x2="140" y2="405" stroke="#BA7517" stroke-width="1" stroke-dasharray="3,2" marker-end="url(#arr)"/>
<!-- Hub to AppGW -->
<line x1="540" y1="390" x2="300" y2="99" stroke="#64748b" stroke-width="1" stroke-dasharray="4,2" marker-end="url(#arr)"/>
<!-- Internet to Cloudflare -->
<line x1="680" y1="390" x2="80" y2="99" stroke="#64748b" stroke-width="1" stroke-dasharray="4,2" marker-end="url(#arr)"/>

<!-- Step labels -->
<text x="135" y="78" font-size="8" fill="#BA7517">7</text>
<text x="246" y="152" font-size="8" fill="#1B3A6B">3</text>
<text x="248" y="248" font-size="8" fill="#0F6E56">5,6</text>
<text x="280" y="302" font-size="8" fill="#0F6E56">6</text>
<text x="403" y="200" font-size="8" fill="#BA7517">9</text>
<text x="283" y="258" font-size="8" fill="#0F6E56">10</text>
<text x="490" y="310" font-size="8" fill="#1B3A6B">4</text>
<text x="350" y="385" font-size="8" fill="#BA7517">11</text>

<!-- Legend -->
<rect x="20" y="456" width="860" height="28" rx="6" fill="white" stroke="#e2e8f0"/>
<circle cx="40" cy="470" r="5" fill="#1B3A6B"/>
<text x="50" y="474" font-size="9" fill="#1e293b">Core Platform</text>
<circle cx="140" cy="470" r="5" fill="#0F6E56"/>
<text x="150" y="474" font-size="9" fill="#1e293b">AKS Internal</text>
<circle cx="240" cy="470" r="5" fill="#BA7517"/>
<text x="250" y="474" font-size="9" fill="#1e293b">Security/Supply Chain</text>
<line x1="370" y1="470" x2="400" y2="470" stroke="#1B3A6B" stroke-width="1.5" marker-end="url(#arr)"/>
<text x="405" y="474" font-size="9" fill="#1e293b">Traffic Flow</text>
<line x1="480" y1="470" x2="510" y2="470" stroke="#64748b" stroke-width="1" stroke-dasharray="3,2" marker-end="url(#arr)"/>
<text x="515" y="474" font-size="9" fill="#64748b">External Ref</text>
<text x="700" y="474" font-size="9" fill="#64748b">Tier 2 — Logical | Containers &amp; Kubernetes</text>
</svg>