<svg viewBox="0 0 900 600" width="900" height="600" font-family="system-ui,-apple-system,sans-serif" xmlns="http://www.w3.org/2000/svg">
<defs>
<marker id="arr" markerWidth="8" markerHeight="8" refX="6" refY="3" orient="auto">
<path d="M0,0 L0,6 L8,3 z" fill="#1B3A6B"/>
</marker>
<marker id="arr2" markerWidth="8" markerHeight="8" refX="6" refY="3" orient="auto">
<path d="M0,0 L0,6 L8,3 z" fill="#0F6E56"/>
</marker>
</defs>
<!-- Title -->
<rect width="900" height="36" fill="#1B3A6B"/>
<text x="450" y="23" fill="white" font-size="13" font-weight="bold" text-anchor="middle">McCain Enterprise AKS Platform — Private Multi-Tenant Kubernetes</text>

<!-- Background zones -->
<rect x="8" y="44" width="884" height="548" rx="8" fill="#EAF1FB" stroke="#1B3A6B" stroke-width="1" stroke-dasharray="4,2" opacity="0.4"/>

<!-- EDGE / INGRESS ZONE -->
<rect x="16" y="52" width="260" height="130" rx="6" fill="#E8F5F0" stroke="#0F6E56" stroke-width="1.2"/>
<text x="146" y="67" font-size="10" fill="#0F6E56" font-weight="bold" text-anchor="middle">Edge / Ingress</text>
<!-- Cloudflare -->
<rect x="24" y="72" width="110" height="30" rx="8" fill="white" stroke="#BA7517" stroke-width="1.5"/>
<text x="79" y="91" font-size="11" fill="#1e293b" text-anchor="middle">Cloudflare WAF</text>
<!-- App GW -->
<rect x="152" y="72" width="112" height="30" rx="8" fill="white" stroke="#1B3A6B" stroke-width="1.5"/>
<text x="208" y="87" font-size="10" fill="#1e293b" text-anchor="middle">App Gateway v2</text>
<text x="208" y="97" font-size="9" fill="#64748b" text-anchor="middle">(WAF, L7, ILB/Pub)</text>
<!-- NGINX Ingress -->
<rect x="80" y="116" width="140" height="28" rx="8" fill="white" stroke="#1B3A6B" stroke-width="1.5"/>
<text x="150" y="134" font-size="11" fill="#1e293b" text-anchor="middle">Managed NGINX Ingress</text>

<!-- AKS CLUSTER ZONE -->
<rect x="16" y="192" width="570" height="270" rx="6" fill="#EAF1FB" stroke="#1B3A6B" stroke-width="1.5"/>
<text x="301" y="207" font-size="11" fill="#1B3A6B" font-weight="bold" text-anchor="middle">Private AKS Cluster (Azure CNI Overlay)</text>
<!-- System Node Pool -->
<rect x="26" y="214" width="120" height="34" rx="8" fill="white" stroke="#1B3A6B" stroke-width="1.3"/>
<text x="86" y="228" font-size="10" fill="#1e293b" text-anchor="middle">System Node Pool</text>
<text x="86" y="240" font-size="8" fill="#64748b" text-anchor="middle">CriticalAddonsOnly</text>
<!-- User Node Pools -->
<rect x="160" y="214" width="130" height="34" rx="8" fill="white" stroke="#0F6E56" stroke-width="1.3"/>
<text x="225" y="228" font-size="10" fill="#1e293b" text-anchor="middle">User Node Pools</text>
<text x="225" y="240" font-size="8" fill="#64748b" text-anchor="middle">per BU, Autoscaler</text>
<!-- Cilium -->
<rect x="305" y="214" width="110" height="34" rx="8" fill="white" stroke="#0F6E56" stroke-width="1.3"/>
<text x="360" y="228" font-size="10" fill="#1e293b" text-anchor="middle">Cilium Net Policies</text>
<text x="360" y="240" font-size="8" fill="#64748b" text-anchor="middle">CCNP / CNP</text>
<!-- ArgoCD -->
<rect x="430" y="214" width="140" height="34" rx="8" fill="white" stroke="#BA7517" stroke-width="1.3"/>
<text x="500" y="228" font-size="10" fill="#1e293b" text-anchor="middle">ArgoCD (GitOps)</text>
<text x="500" y="240" font-size="8" fill="#64748b" text-anchor="middle">ApplicationSet, RBAC</text>
<!-- Azure Policy -->
<rect x="26" y="262" width="120" height="30" rx="8" fill="white" stroke="#BA7517" stroke-width="1.3"/>
<text x="86" y="274" font-size="10" fill="#1e293b" text-anchor="middle">Azure Policy Add-on</text>
<text x="86" y="284" font-size="8" fill="#64748b" text-anchor="middle">PSS/Gatekeeper</text>
<!-- Workload Identity -->
<rect x="160" y="262" width="130" height="30" rx="8" fill="white" stroke="#1B3A6B" stroke-width="1.3"/>
<text x="225" y="274" font-size="10" fill="#1e293b" text-anchor="middle">Workload Identity</text>
<text x="225" y="284" font-size="8" fill="#64748b" text-anchor="middle">OIDC Federated</text>
<!-- Ratify -->
<rect x="305" y="262" width="110" height="30" rx="8" fill="white" stroke="#BA7517" stroke-width="1.3"/>
<text x="360" y="274" font-size="10" fill="#1e293b" text-anchor="middle">Notation v2 + Ratify</text>
<text x="360" y="284" font-size="8" fill="#64748b" text-anchor="middle">Admission Signing</text>
<!-- Entra ID -->
<rect x="430" y="262" width="140" height="30" rx="8" fill="white" stroke="#1B3A6B" stroke-width="1.3"/>
<text x="500" y="274" font-size="10" fill="#1e293b" text-anchor="middle">Entra ID + Azure RBAC</text>
<text x="500" y="284" font-size="8" fill="#64748b" text-anchor="middle">Auth/Authz</text>
<!-- Defender -->
<rect x="26" y="308" width="120" height="30" rx="8" fill="white" stroke="#0F6E56" stroke-width="1.3"/>
<text x="86" y="320" font-size="10" fill="#1e293b" text-anchor="middle">Defender Containers</text>
<text x="86" y="330" font-size="8" fill="#64748b" text-anchor="middle">Runtime + MDVM</text>
<!-- Observability -->
<rect x="160" y="308" width="130" height="30" rx="8" fill="white" stroke="#0F6E56" stroke-width="1.3"/>
<text x="225" y="320" font-size="10" fill="#1e293b" text-anchor="middle">Observability Stack</text>
<text x="225" y="330" font-size="8" fill="#64748b" text-anchor="middle">Grafana, Log Analytics</text>
<!-- Azure DevOps -->
<rect x="305" y="308" width="260" height="30" rx="8" fill="white" stroke="#BA7517" stroke-width="1.3"/>
<text x="435" y="320" font-size="10" fill="#1e293b" text-anchor="middle">Azure DevOps + Terraform</text>
<text x="435" y="330" font-size="8" fill="#64748b" text-anchor="middle">IaC, OPA, Pipeline Gates</text>
<!-- Cost Chargeback -->
<rect x="26" y="354" width="570" height="26" rx="8" fill="#fff8e1" stroke="#BA7517" stroke-width="1.2"/>
<text x="311" y="371" font-size="10" fill="#BA7517" font-weight="bold" text-anchor="middle">Cost Chargeback — Azure Cost Mgmt Tags (BU/app/env) + VMSS Attribution</text>

<!-- PLATFORM SERVICES ZONE -->
<rect x="598" y="192" width="290" height="270" rx="6" fill="#E8F5F0" stroke="#0F6E56" stroke-width="1.2"/>
<text x="743" y="207" font-size="11" fill="#0F6E56" font-weight="bold" text-anchor="middle">Platform Services</text>
<!-- ACR -->
<rect x="608" y="214" width="125" height="34" rx="8" fill="white" stroke="#1B3A6B" stroke-width="1.3"/>
<text x="670" y="228" font-size="10" fill="#1e293b" text-anchor="middle">ACR Premium</text>
<text x="670" y="240" font-size="8" fill="#64748b" text-anchor="middle">Private EP, Notation</text>
<!-- Key Vault -->
<rect x="752" y="214" width="125" height="34" rx="8" fill="white" stroke="#1B3A6B" stroke-width="1.3"/>
<text x="814" y="228" font-size="10" fill="#1e293b" text-anchor="middle">Key Vault + CSI</text>
<text x="814" y="240" font-size="8" fill="#64748b" text-anchor="middle">Secrets, Certs, RBAC</text>
<!-- Azure Firewall -->
<rect x="608" y="264" width="268" height="34" rx="8" fill="white" stroke="#1B3A6B" stroke-width="1.3"/>
<text x="742" y="278" font-size="10" fill="#1e293b" text-anchor="middle">Azure Firewall / NAT</text>
<text x="742" y="290" font-size="8" fill="#64748b" text-anchor="middle">Egress FQDN/Service Tag Rules</text>
<!-- Related Pattern -->
<rect x="608" y="314" width="268" height="30" rx="8" fill="white" stroke="#64748b" stroke-width="1" stroke-dasharray="4,2"/>
<text x="742" y="326" font-size="10" fill="#64748b" text-anchor="middle">Related: ID-005 Cloud</text>
<text x="742" y="338" font-size="9" fill="#64748b" text-anchor="middle">(External Reference)</text>

<!-- HUB / NETWORK -->
<rect x="16" y="472" width="870" height="68" rx="6" fill="#EAF1FB" stroke="#1B3A6B" stroke-width="1.2"/>
<text x="100" y="487" font-size="10" fill="#1B3A6B" font-weight="bold">Hub Network</text>
<rect x="24" y="492" width="140" height="24" rx="6" fill="white" stroke="#1B3A6B" stroke-width="1"/>
<text x="94" y="508" font-size="10" fill="#1e293b" text-anchor="middle">ExpressRoute / VPN</text>
<rect x="174" y="492" width="100" height="24" rx="6" fill="white" stroke="#1B3A6B" stroke-width="1"/>
<text x="224" y="508" font-size="10" fill="#1e293b" text-anchor="middle">Zscaler / Jump</text>
<rect x="284" y="492" width="120" height="24" rx="6" fill="white" stroke="#1B3A6B" stroke-width="1"/>
<text x="344" y="508" font-size="10" fill="#1e293b" text-anchor="middle">Private DNS Zones</text>
<rect x="414" y="492" width="130" height="24" rx="6" fill="white" stroke="#0F6E56" stroke-width="1"/>
<text x="479" y="508" font-size="10" fill="#1e293b" text-anchor="middle">AKS Private API Link</text>
<rect x="554" y="492" width="140" height="24" rx="6" fill="white" stroke="#0F6E56" stroke-width="1"/>
<text x="624" y="508" font-size="10" fill="#1e293b" text-anchor="middle">Private Endpoints (ACR/KV)</text>
<rect x="704" y="492" width="170" height="24" rx="6" fill="white" stroke="#BA7517" stroke-width="1"/>
<text x="789" y="508" font-size="10" fill="#1e293b" text-anchor="middle">Spoke AKS Subscription (LZ)</text>

<!-- ARROWS -->
<!-- Cloudflare to AppGW -->
<line x1="134" y1="87" x2="152" y2="87" stroke="#BA7517" stroke-width="1.5" marker-end="url(#arr)"/>
<!-- AppGW to NGINX -->
<line x1="208" y1="102" x2="180" y2="116" stroke="#1B3A6B" stroke-width="1.5" marker-end="url(#arr)"/>
<!-- NGINX to AKS cluster (user pods) -->
<line x1="150" y1="144" x2="180" y2="192" stroke="#1B3A6B" stroke-width="1.5" marker-end="url(#arr)"/>
<!-- AKS to Azure Firewall (egress) -->
<line x1="586" y1="308" x2="608" y2="285" stroke="#0F6E56" stroke-width="1.5" stroke-dasharray="5,2" marker-end="url(#arr2)"/>
<!-- ArgoCD to Cilium -->
<line x1="430" y1="231" x2="415" y2="231" stroke="#BA7517" stroke-width="1.3" stroke-dasharray="4,2" marker-end="url(#arr)"/>
<!-- Workload Identity to Key Vault -->
<line x1="290" y1="272" x2="608" y2="233" stroke="#1B3A6B" stroke-width="1.2" stroke-dasharray="4,2" marker-end="url(#arr)"/>
<!-- Ratify to ACR -->
<line x1="360" y1="262" x2="608" y2="230" stroke="#BA7517" stroke-width="1.2" stroke-dasharray="4,2" marker-end="url(#arr)"/>
<!-- AKS to Hub -->
<line x1="301" y1="462" x2="344" y2="472" stroke="#1B3A6B" stroke-width="1.2" stroke-dasharray="3,2" marker-end="url(#arr)"/>
<!-- External Internet arrow -->
<line x1="79" y1="52" x2="79" y2="72" stroke="#BA7517" stroke-width="1.5" marker-end="url(#arr)"/>
<text x="82" y="65" font-size="9" fill="#BA7517">Internet</text>
</svg>