<svg viewBox="0 0 900 600" width="900" height="600" font-family="system-ui,-apple-system,sans-serif" xmlns="http://www.w3.org/2000/svg">
<defs>
<marker id="arr" markerWidth="8" markerHeight="8" refX="6" refY="3" orient="auto">
<path d="M0,0 L0,6 L8,3 z" fill="#1B3A6B"/>
</marker>
<marker id="arr2" markerWidth="8" markerHeight="8" refX="6" refY="3" orient="auto">
<path d="M0,0 L0,6 L8,3 z" fill="#0F6E56"/>
</marker>
</defs>

<!-- Title bar -->
<rect width="900" height="44" fill="#1B3A6B" rx="0"/>
<text x="450" y="16" fill="white" font-size="12" font-weight="bold" text-anchor="middle">Device Compliance-Gated DLP</text>
<text x="450" y="32" fill="#93c5fd" font-size="10" text-anchor="middle">Blocking Downloads to Non-Compliant Endpoints · Intune · MDCA · Microsoft Purview</text>

<!-- Background regions -->
<rect x="8" y="52" width="884" height="70" fill="#EAF1FB" rx="6" stroke="#1B3A6B" stroke-width="0.5" stroke-dasharray="4,2"/>
<text x="18" y="65" fill="#1B3A6B" font-size="9" font-weight="bold">DEVICE LAYER</text>

<rect x="8" y="130" width="884" height="70" fill="#E8F5F0" rx="6" stroke="#0F6E56" stroke-width="0.5" stroke-dasharray="4,2"/>
<text x="18" y="143" fill="#0F6E56" font-size="9" font-weight="bold">IDENTITY &amp; ACCESS LAYER</text>

<rect x="8" y="208" width="884" height="70" fill="#EAF1FB" rx="6" stroke="#1B3A6B" stroke-width="0.5" stroke-dasharray="4,2"/>
<text x="18" y="221" fill="#1B3A6B" font-size="9" font-weight="bold">SESSION CONTROL LAYER</text>

<rect x="8" y="286" width="884" height="70" fill="#E8F5F0" rx="6" stroke="#0F6E56" stroke-width="0.5" stroke-dasharray="4,2"/>
<text x="18" y="299" fill="#0F6E56" font-size="9" font-weight="bold">DATA CLASSIFICATION &amp; DLP LAYER</text>

<rect x="8" y="364" width="884" height="70" fill="#EAF1FB" rx="6" stroke="#1B3A6B" stroke-width="0.5" stroke-dasharray="4,2"/>
<text x="18" y="377" fill="#1B3A6B" font-size="9" font-weight="bold">SOC &amp; AUDIT LAYER</text>

<!-- Row 1: Device Layer -->
<!-- MDE -->
<rect x="30" y="60" width="160" height="50" fill="white" rx="8" stroke="#BA7517" stroke-width="1.5"/>
<text x="110" y="79" fill="#1e293b" font-size="11" font-weight="bold" text-anchor="middle">Microsoft Defender</text>
<text x="110" y="93" fill="#64748b" font-size="10" text-anchor="middle">for Endpoint (MDE)</text>
<text x="110" y="105" fill="#BA7517" font-size="9" text-anchor="middle">Device Risk Score</text>

<!-- Intune -->
<rect x="220" y="60" width="160" height="50" fill="white" rx="8" stroke="#1B3A6B" stroke-width="1.5"/>
<text x="300" y="79" fill="#1e293b" font-size="11" font-weight="bold" text-anchor="middle">Microsoft Intune</text>
<text x="300" y="93" fill="#64748b" font-size="10" text-anchor="middle">Device Compliance</text>
<text x="300" y="105" fill="#1B3A6B" font-size="9" text-anchor="middle">Compliance Signal Provider</text>

<!-- AAD Device Reg -->
<rect x="410" y="60" width="160" height="50" fill="white" rx="8" stroke="#1B3A6B" stroke-width="1.5"/>
<text x="490" y="79" fill="#1e293b" font-size="11" font-weight="bold" text-anchor="middle">Entra ID Device</text>
<text x="490" y="93" fill="#64748b" font-size="10" text-anchor="middle">Registration &amp; Hybrid Join</text>
<text x="490" y="105" fill="#1B3A6B" font-size="9" text-anchor="middle">AAD Hybrid Join</text>

<!-- Row 2: Identity Layer -->
<!-- Entra ID CA -->
<rect x="220" y="138" width="220" height="50" fill="white" rx="8" stroke="#1B3A6B" stroke-width="2"/>
<text x="330" y="157" fill="#1e293b" font-size="11" font-weight="bold" text-anchor="middle">Microsoft Entra ID</text>
<text x="330" y="171" fill="#64748b" font-size="10" text-anchor="middle">Conditional Access</text>
<text x="330" y="183" fill="#1B3A6B" font-size="9" text-anchor="middle">Policy Engine · Device Compliance Gate</text>

<!-- Row 3: Session Control -->
<!-- MDCA -->
<rect x="220" y="216" width="220" height="50" fill="white" rx="8" stroke="#0F6E56" stroke-width="2"/>
<text x="330" y="235" fill="#1e293b" font-size="11" font-weight="bold" text-anchor="middle">Microsoft Defender</text>
<text x="330" y="249" fill="#64748b" font-size="10" text-anchor="middle">for Cloud Apps (MDCA)</text>
<text x="330" y="261" fill="#0F6E56" font-size="9" text-anchor="middle">Session Control · CASB · Reverse Proxy</text>

<!-- Row 4: Data Layer -->
<!-- Purview IP -->
<rect x="100" y="294" width="190" height="50" fill="white" rx="8" stroke="#0F6E56" stroke-width="1.5"/>
<text x="195" y="313" fill="#1e293b" font-size="11" font-weight="bold" text-anchor="middle">Purview Info Protection</text>
<text x="195" y="327" fill="#64748b" font-size="10" text-anchor="middle">Sensitivity Labels</text>
<text x="195" y="339" fill="#0F6E56" font-size="9" text-anchor="middle">Classification Engine</text>

<!-- Purview DLP -->
<rect x="320" y="294" width="190" height="50" fill="white" rx="8" stroke="#0F6E56" stroke-width="1.5"/>
<text x="415" y="313" fill="#1e293b" font-size="11" font-weight="bold" text-anchor="middle">Purview DLP Policies</text>
<text x="415" y="327" fill="#64748b" font-size="10" text-anchor="middle">Exchange · SPO · ODB · Teams</text>
<text x="415" y="339" fill="#0F6E56" font-size="9" text-anchor="middle">Secondary Enforcement Layer</text>

<!-- Row 5: SOC Layer -->
<!-- Sentinel -->
<rect x="100" y="372" width="190" height="50" fill="white" rx="8" stroke="#1B3A6B" stroke-width="1.5"/>
<text x="195" y="391" fill="#1e293b" font-size="11" font-weight="bold" text-anchor="middle">Microsoft Sentinel</text>
<text x="195" y="405" fill="#64748b" font-size="10" text-anchor="middle">SIEM · SOC Integration</text>
<text x="195" y="417" fill="#1B3A6B" font-size="9" text-anchor="middle">Alerts · Analytics · Workbooks</text>

<!-- Purview Audit -->
<rect x="320" y="372" width="190" height="50" fill="white" rx="8" stroke="#1B3A6B" stroke-width="1.5"/>
<text x="415" y="391" fill="#1e293b" font-size="11" font-weight="bold" text-anchor="middle">Purview Audit Log</text>
<text x="415" y="405" fill="#64748b" font-size="10" text-anchor="middle">Forensic Evidence</text>
<text x="415" y="417" fill="#1B3A6B" font-size="9" text-anchor="middle">Compliance Reporting</text>

<!-- Arrows -->
<!-- MDE → Intune -->
<line x1="190" y1="85" x2="218" y2="85" stroke="#BA7517" stroke-width="1.5" marker-end="url(#arr)"/>
<text x="204" y="80" fill="#BA7517" font-size="8" text-anchor="middle">Risk</text>

<!-- Intune → AAD Device Reg -->
<line x1="380" y1="85" x2="408" y2="85" stroke="#1B3A6B" stroke-width="1.5" marker-end="url(#arr)"/>
<text x="394" y="80" fill="#1B3A6B" font-size="8" text-anchor="middle">Join</text>

<!-- Intune → Entra CA -->
<line x1="300" y1="110" x2="308" y2="136" stroke="#1B3A6B" stroke-width="1.5" marker-end="url(#arr)"/>
<text x="318" y="126" fill="#1B3A6B" font-size="8">Compliance</text>

<!-- AAD → Entra CA -->
<line x1="490" y1="110" x2="430" y2="136" stroke="#1B3A6B" stroke-width="1" stroke-dasharray="3,2" marker-end="url(#arr)"/>

<!-- Entra CA → MDCA -->
<line x1="330" y1="188" x2="330" y2="214" stroke="#1B3A6B" stroke-width="2" marker-end="url(#arr)"/>
<text x="342" y="205" fill="#1B3A6B" font-size="8">Route Session</text>

<!-- Purview IP → MDCA -->
<line x1="240" y1="294" x2="300" y2="266" stroke="#0F6E56" stroke-width="1.5" marker-end="url(#arr2)"/>
<text x="258" y="285" fill="#0F6E56" font-size="8">Labels</text>

<!-- Purview DLP → MDCA -->
<line x1="380" y1="294" x2="360" y2="266" stroke="#0F6E56" stroke-width="1.5" marker-end="url(#arr2)"/>
<text x="382" y="285" fill="#0F6E56" font-size="8">DLP</text>

<!-- MDCA → Sentinel -->
<line x1="270" y1="266" x2="230" y2="370" stroke="#1B3A6B" stroke-width="1" stroke-dasharray="4,2" marker-end="url(#arr)"/>
<text x="238" y="330" fill="#1B3A6B" font-size="8">Alerts</text>

<!-- Purview DLP → Sentinel -->
<line x1="370" y1="344" x2="280" y2="370" stroke="#1B3A6B" stroke-width="1" stroke-dasharray="4,2" marker-end="url(#arr)"/>

<!-- MDCA → Purview Audit -->
<line x1="390" y1="266" x2="415" y2="370" stroke="#1B3A6B" stroke-width="1" stroke-dasharray="4,2" marker-end="url(#arr)"/>
<text x="420" y="325" fill="#1B3A6B" font-size="8">Audit</text>

<!-- Right side: User Remediation box -->
<rect x="580" y="216" width="160" height="50" fill="white" rx="8" stroke="#BA7517" stroke-width="1.5" stroke-dasharray="5,2"/>
<text x="660" y="235" fill="#1e293b" font-size="11" font-weight="bold" text-anchor="middle">User Remediation</text>
<text x="660" y="249" fill="#64748b" font-size="10" text-anchor="middle">Block Page · ServiceNow</text>
<text x="660" y="261" fill="#BA7517" font-size="9" text-anchor="middle">Self-Enroll · Exception Request</text>

<!-- MDCA → User Remediation -->
<line x1="440" y1="241" x2="578" y2="241" stroke="#BA7517" stroke-width="1.5" marker-end="url(#arr)"/>
<text x="510" y="235" fill="#BA7517" font-size="8" text-anchor="middle">Block + Notify</text>

<!-- Related Patterns -->
<rect x="580" y="138" width="190" height="50" fill="#EAF1FB" rx="8" stroke="#1B3A6B" stroke-width="1" stroke-dasharray="5,3"/>
<text x="675" y="157" fill="#1B3A6B" font-size="10" font-weight="bold" text-anchor="middle">Related: IAM-CA-001</text>
<text x="675" y="171" fill="#64748b" font-size="9" text-anchor="middle">Conditional Access Pattern</text>
<text x="675" y="183" fill="#64748b" font-size="9" text-anchor="middle">Prerequisite / Depends On</text>

<!-- CA → Related -->
<line x1="440" y1="163" x2="578" y2="163" stroke="#1B3A6B" stroke-width="1" stroke-dasharray="4,3" marker-end="url(#arr)"/>

<!-- Legend -->
<rect x="580" y="294" width="290" height="130" fill="#f8fafc" rx="8" stroke="#64748b" stroke-width="0.5"/>
<text x="594" y="312" fill="#1B3A6B" font-size="10" font-weight="bold">Legend</text>
<line x1="594" y1="322" x2="634" y2="322" stroke="#1B3A6B" stroke-width="2" marker-end="url(#arr)"/>
<text x="640" y="326" fill="#1e293b" font-size="10">Control / Data Flow</text>
<line x1="594" y1="340" x2="634" y2="340" stroke="#1B3A6B" stroke-width="1" stroke-dasharray="4,2" marker-end="url(#arr)"/>
<text x="640" y="344" fill="#1e293b" font-size="10">Diagnostic / Log Flow</text>
<line x1="594" y1="358" x2="634" y2="358" stroke="#0F6E56" stroke-width="1.5" marker-end="url(#arr2)"/>
<text x="640" y="362" fill="#1e293b" font-size="10">Classification Signal</text>
<line x1="594" y1="376" x2="634" y2="376" stroke="#BA7517" stroke-width="1.5" marker-end="url(#arr)"/>
<text x="640" y="380" fill="#1e293b" font-size="10">User Notification</text>
<rect x="594" y="390" width="12" height="8" fill="white" rx="2" stroke="#1B3A6B" stroke-width="1.5"/>
<text x="612" y="398" fill="#1e293b" font-size="10">Core Component</text>
<rect x="690" y="390" width="12" height="8" fill="#EAF1FB" rx="2" stroke="#1B3A6B" stroke-width="1" stroke-dasharray="3,2"/>
<text x="708" y="398" fill="#1e293b" font-size="10">Related Pattern</text>

<!-- Footer -->
<rect x="0" y="444" width="900" height="24" fill="#1B3A6B" rx="0"/>
<text x="20" y="460" fill="#93c5fd" font-size="9">McCain Foods · Security &amp; Controls · Tier 2 — Logical · Zero Trust DLP Architecture</text>
<text x="880" y="460" fill="#93c5fd" font-size="9" text-anchor="end">35 Manufacturing Sites · Azure Cloud-First</text>
</svg>